<svg width="512" height="512" viewBox="0 0 512 512" fill="none" xmlns="http://www.w3.org/2000/svg">
  <!-- Background Circle -->
  <circle cx="256" cy="256" r="256" fill="#8B5CF6"/>
  
  <!-- Minimalist Ghost Shape -->
  <path d="M256 140C198.144 140 151 187.144 151 245V345C151 357.15 160.85 367 173 367C185.15 367 195 357.15 195 345V335C195 322.85 204.85 313 217 313C229.15 313 239 322.85 239 335V345C239 357.15 248.85 367 261 367C273.15 367 283 357.15 283 345V335C283 322.85 292.85 313 305 313C317.15 313 327 322.85 327 335V345C327 357.15 336.85 367 349 367C361.15 367 371 357.15 371 345V245C371 187.144 323.856 140 266 140H256Z" fill="white"/>
  
  <!-- Chat Bubble Outline -->
  <path d="M340 280C340 294.912 336.418 308.885 329.995 320.8C323.572 332.715 314.686 342 304 348V375L280 355H260C229.072 355 204 329.928 204 299V280C204 249.072 229.072 224 260 224H284C314.928 224 340 249.072 340 280Z" stroke="white" stroke-width="6" stroke-opacity="0.3"/>
</svg>
